<svg version="1.2" xmlns="http://www.w3.org/2000/svg" viewBox="0 0 960 960" width="960" height="960">
    <defs>
        <linearGradient id="P" gradientUnits="userSpaceOnUse" />
        <linearGradient id="g1" x2="1" href="#P" gradientTransform="matrix(331.269,0,0,278.266,447.374,613.813)">
            <stop stop-color="#deae35" />
            <stop offset=".62" stop-color="#daa520" />
        </linearGradient>
    </defs>
    <style>
        .a {
            fill: #1f2125
        }

        @media (prefers-color-scheme: dark) {
            .a {
                fill: #fff;
            }
        }

        .b {
            fill: url(#g1)
        }
    </style>
    <path class="a"
          d="m338.4 764h-65.4v-411.8l-148-204.8v742.6h196.2c55.4 0 105.3-2.3 149.7-8.9 44.4-6.6 84-15.5 118.9-28.7q18-6.7 34.7-14.5l-79.2-109.4c-49.7 24.2-118.7 35.5-206.9 35.5z" />
    <path class="a"
          d="m774.7 707.7q30.2-48.1 45-106.3 14.8-58.3 14.8-124.8 0-70.3-17.6-130.4-17.5-60-51.7-108.7-34.2-48.7-84.8-84.4-50.5-35.8-116.4-56.7-22.2-7.5-48.7-12.7c-17.7-3.5-36-6.5-54.9-9-18.9-2.5-38.3-4.4-58.2-5.6-19.9-1.3-39.5-2.1-58.8-2.1h-160.9l91.2 126h69c35.8 0 68 2.4 96.8 6.5 28.7 4.1 54.8 11 78.2 20.1q37.6 14.8 67.5 37.6 29.9 22.8 50.9 54.5c13.9 21.2 24.6 45.2 32 72.4 7.4 27.1 11.1 57.4 11.1 91.1 0 64.5-11.3 117.3-33.9 158.8-7.3 13.5-15.8 25.8-25.5 37.2l84.4 116.6q42.2-35.1 70.5-80.1z" />
    <path class="b"
          d="m778.6 889q-81.9-113.2-163.8-226.4c-47.5-65.5-84-46.1-167.4-46.1 52.3 70.2 102.9 141.9 154.3 212.9 56.1 77.4 76.8 61.3 176.9 61.3" />
</svg>